HIERARCHY
ROOT hip
{
	OFFSET 0.000000 0.000000 0.000000 
	CHANNELS 6 Xposition Yposition Zposition Xrotation Zrotation Yrotation
	JOINT abdomen
	{
		OFFSET 0.000000 3.402643 0.000000 
		CHANNELS 3 Xrotation Zrotation Yrotation
		JOINT chest
		{
			OFFSET 0.000000 8.438565 -0.680529 
			CHANNELS 3 Xrotation Zrotation Yrotation
			JOINT neck
			{
				OFFSET 0.000000 10.207942 -0.272212 
				CHANNELS 3 Xrotation Zrotation Yrotation
				JOINT head
				{
					OFFSET 0.000000 3.130431 0.000000 
					CHANNELS 3 Xrotation Zrotation Yrotation
					End Site
					{
						OFFSET 0.000000 3.130435 0.000000 
					}
				}
			}
			JOINT lCollar
			{
				OFFSET 3.470700 6.669187 -0.816635 
				CHANNELS 3 Yrotation Zrotation Xrotation
				JOINT lShldr
				{
					OFFSET 3.198488 0.000000 0.000000 
					CHANNELS 3 Zrotation Yrotation Xrotation
					JOINT lForeArm
					{
						OFFSET 10.139888 0.000000 0.000000 
						CHANNELS 3 Yrotation Zrotation Xrotation
						JOINT lHand
						{
							OFFSET 8.370511 0.000000 0.000000 
							CHANNELS 3 Zrotation Yrotation Xrotation
							End Site
							{
								OFFSET 4.083176 0.000000 0.000000 
							}
						}
					}
				}
			}
			JOINT rCollar
			{
				OFFSET -3.470700 6.669187 -0.816635 
				CHANNELS 3 Yrotation Zrotation Xrotation
				JOINT rShldr
				{
					OFFSET -3.198488 0.000000 0.000000 
					CHANNELS 3 Zrotation Yrotation Xrotation
					JOINT rForeArm
					{
						OFFSET -10.139888 0.000000 0.000000 
						CHANNELS 3 Yrotation Zrotation Xrotation
						JOINT rHand
						{
							OFFSET -8.370511 0.000000 0.000000 
							CHANNELS 3 Zrotation Yrotation Xrotation
							End Site
							{
								OFFSET -4.083176 0.000000 0.000000 
							}
						}
					}
				}
			}
		}
	}
	JOINT lThigh
	{
		OFFSET 5.308129 -1.633274 1.361059 
		CHANNELS 3 Xrotation Zrotation Yrotation
		JOINT lShin
		{
			OFFSET -2.041588 -20.007561 0.000000 
			CHANNELS 3 Xrotation Zrotation Yrotation
			JOINT lFoot
			{
				OFFSET 0.000000 -19.190928 -1.224953 
				CHANNELS 3 Xrotation Yrotation Zrotation
				End Site
				{
					OFFSET 0.000000 -2.449906 4.627600 
				}
			}
		}
	}
	JOINT rThigh
	{
		OFFSET -5.308129 -1.633274 1.361059 
		CHANNELS 3 Xrotation Zrotation Yrotation
		JOINT rShin
		{
			OFFSET 2.041588 -20.007561 0.000000 
			CHANNELS 3 Xrotation Zrotation Yrotation
			JOINT rFoot
			{
				OFFSET 0.000000 -19.190928 -1.224953 
				CHANNELS 3 Xrotation Yrotation Zrotation
				End Site
				{
					OFFSET 0.000000 -2.449906 4.627600 
				}
			}
		}
	}
}
MOTION
Frames: 18
Frame Time: 0.033333
0.334508 43.830994 0.334508 19.902346 0.000000 -0.009766 21.028458 1.433472 -3.738581 7.998049 0.000047 -0.009727 51.712852 3.032248 -2.686931 10.524219 0.508720 -0.030344 -6.041439 -11.760382 5.554698 -54.932774 -39.615517 -13.168117 -45.998604 -2.632313 2.029836 -38.815926 -50.520088 65.799850 -2.988463 11.731470 5.555439 56.261314 40.870220 -44.200378 71.508492 3.052679 1.462913 38.805038 50.520535 65.806732 -47.545490 5.897917 3.037586 38.720943 -0.480969 -3.730765 -10.643273 7.098884 -2.651382 -8.904849 -10.514396 -14.560382 69.621170 -1.533345 4.585875 33.142014 4.680978 0.916248 
0.334508 41.049301 0.334508 30.576172 0.000000 -0.009766 21.028458 1.433472 -3.738581 4.052736 0.000050 -0.009731 50.010033 2.944237 -2.793991 10.524219 0.508720 -0.030344 -6.394474 -11.714355 3.816380 -51.895367 -32.273689 -1.467713 -63.122940 -2.949229 1.674455 -38.815926 -50.520088 65.799850 -2.635184 11.676274 3.815688 49.883209 28.573027 -52.450626 71.508492 3.052679 1.462913 38.805038 50.520535 65.806732 -62.449986 6.172059 2.563592 52.421627 0.334118 -4.267133 -20.134804 7.611579 -2.744847 1.580411 -7.887739 -15.490475 54.809795 -0.529704 4.301718 44.905155 4.905919 0.198496 
0.334508 35.907898 0.334508 37.968750 0.000000 -0.009766 21.028458 1.433472 -3.738581 0.908204 0.000052 -0.009734 48.464596 2.863304 -2.881293 10.524219 0.508720 -0.030344 -6.709314 -11.656340 2.237682 -49.864960 -27.147608 7.419863 -75.009323 -3.094087 1.376862 -38.815926 -50.520088 65.799850 -2.312048 11.624292 2.238659 46.518520 19.075804 -56.241550 71.508492 3.052679 1.462913 38.805038 50.520535 65.806732 -66.009666 6.239525 2.150266 87.416214 2.802631 -4.628553 -27.495659 6.767028 -5.583835 9.164883 -5.886339 -15.869439 43.569466 0.176239 3.922073 52.839531 5.000629 -0.275309 
0.334508 27.951563 0.334508 49.638672 -0.012649 -0.141838 21.028458 1.433472 -3.738581 -5.556639 0.000055 -0.009740 25.943247 1.457029 -3.943866 10.524219 0.508720 -0.030344 -6.572098 -11.690259 2.944400 -47.861462 -9.356152 6.338541 -74.321236 -3.087898 1.396886 -38.815926 -50.520088 65.799850 -1.966913 5.318570 3.197001 37.827293 21.877394 -67.039139 71.508492 3.052679 1.462913 38.805038 50.520535 65.806732 -53.953815 5.752160 2.338114 93.444664 3.212779 -4.525150 28.542919 -3.187496 -8.482682 13.050895 -4.852192 -15.940768 49.068375 -0.165866 4.131801 49.325760 4.656262 -0.539261 
0.334508 21.732925 0.334508 59.394531 -0.004972 -0.262312 21.028458 1.433472 -3.738581 -11.035155 0.000057 -0.009745 5.163765 -0.107268 -4.378994 10.524219 0.508720 -0.030344 -6.228940 -11.732107 4.625422 -44.349064 5.801646 6.223788 -72.809212 -3.069606 1.432544 -38.815926 -50.520088 65.799850 -1.522143 -0.201732 5.109213 29.376736 25.119717 -75.215515 71.508492 3.052679 1.462913 38.805038 50.520535 65.806732 -37.177891 4.949466 2.639100 87.153053 2.773419 -4.639448 25.229568 -3.839384 -8.418445 16.193789 -4.013576 -15.944621 54.790642 -0.529246 4.291493 45.624989 4.313407 -0.748281 
0.334508 15.753210 0.334508 69.169930 0.017363 -0.384048 21.028458 1.433472 -3.738581 -16.455078 0.000059 -0.009750 -13.030606 -1.539330 -4.268851 10.524219 0.508720 -0.030344 -6.324379 -11.722912 4.167256 -38.301132 20.052402 9.117517 -71.035995 -3.052276 1.479440 -38.815926 -50.520088 65.799850 -0.926111 -5.817995 4.996017 20.432371 29.184801 -83.299179 71.508492 3.052679 1.462913 38.805038 50.520535 65.806732 -21.050106 4.158932 2.717738 77.492256 2.101032 -4.687659 16.965813 -3.264971 -8.701519 18.551371 -3.379091 -15.917030 59.867245 -0.856059 4.441183 42.353359 3.995119 -0.920708 
0.334508 8.501828 0.334508 80.947670 0.086046 -0.504844 21.028458 1.433472 -3.738581 -22.578125 -0.009699 0.000348 -28.816383 -2.697418 -3.823887 10.524219 0.508720 -0.030344 -7.027585 -11.596340 0.707082 -26.597723 33.352390 20.434958 -68.938316 -3.027033 1.524159 -38.815926 -50.520088 65.799850 -0.939215 -12.354903 1.969792 9.141419 34.129204 -94.393631 71.508492 3.052679 1.462913 38.805038 50.520535 65.806732 -3.524532 3.543945 2.642287 61.913479 0.972587 -4.504228 15.045804 -3.160962 -8.704545 20.591715 -2.832496 -15.887087 65.888420 -1.276931 4.559454 38.485870 3.642913 -1.055726 
0.334508 0.584403 0.334508 89.444618 0.153386 -0.489003 21.028458 1.433472 -3.738581 -22.578125 -0.009699 0.000348 -15.779272 -1.751409 -4.207627 10.524219 0.508720 -0.030344 -5.165905 -11.840837 9.808044 -24.660986 23.336840 57.317883 -67.502953 -3.010663 1.562198 -38.815926 -50.520088 65.799850 0.965530 -11.653430 11.064967 2.524478 27.768606 -102.934906 71.508492 3.052679 1.462913 38.805038 50.520535 65.806732 9.887021 3.172511 2.496597 45.120663 -0.126645 -3.982201 18.457409 -3.332300 -8.681821 20.264654 -2.920334 -15.902154 72.474274 -1.765004 4.630544 34.403248 3.374464 -1.107443 
0.334508 3.982400 0.334508 89.444618 0.153386 -0.489003 21.028458 1.433472 -3.738581 -17.031250 0.000059 -0.009751 -0.804267 -0.579457 -4.396278 10.524219 0.508720 -0.030344 -5.657417 -11.805305 7.463422 -24.394274 2.001822 56.745491 -67.502953 -3.010663 1.562198 -38.815926 -50.520088 65.799850 0.483291 -11.859137 8.713034 1.300454 15.046386 -114.554810 71.508492 3.052679 1.462913 38.805038 50.520535 65.806732 -15.553688 3.983485 2.715227 45.100437 -0.120436 -3.998231 43.952934 -4.261619 -8.400124 -15.796825 -12.104582 -13.711205 72.455666 -1.747701 4.622968 36.303162 4.792645 0.934202 
0.334508 7.857818 0.334508 89.444618 0.153386 -0.489003 21.028458 1.433472 -3.738581 -12.158202 0.000058 -0.009746 9.870230 0.261410 -4.329138 10.524219 0.508720 -0.030344 -6.031096 -11.762264 5.618782 -20.699352 -15.713894 52.468128 -67.502953 -3.010663 1.562198 -38.815926 -50.520088 65.799850 0.104189 -12.014223 6.862699 1.419015 9.383662 -124.156662 71.508492 3.052679 1.462913 38.805038 50.520535 65.806732 -23.761040 4.246321 2.712287 28.947865 -0.992289 -3.224733 68.375191 -4.964094 -7.770449 -24.384258 -12.460408 -22.518625 49.771160 -0.195257 4.139498 41.692207 4.315251 -8.092577 
0.334508 9.806614 0.334508 89.444618 0.153386 -0.489003 21.028458 1.433472 -3.738581 -10.087890 0.000057 -0.009744 2.035118 -0.366977 -4.379725 10.524219 0.508720 -0.030344 -3.678128 -11.838623 17.087259 -17.560062 -25.347677 51.597153 -67.502953 -3.010663 1.562198 -38.815926 -50.520088 65.799850 2.371553 -10.894618 18.277628 -9.451305 21.435894 -131.357986 71.508492 3.052679 1.462913 38.805038 50.520535 65.806732 -25.043173 4.295938 2.710112 19.172812 -1.399963 -2.658961 79.486961 -5.178205 -7.393314 -24.451803 -12.283209 -29.986631 36.565228 0.586030 3.605393 39.513756 7.594037 -13.583407 
0.334508 7.891082 0.334508 89.444618 0.153386 -0.489003 21.028458 1.433472 -3.738581 -13.789062 0.000058 -0.009748 -9.224741 -1.248965 -4.323732 10.524219 0.508720 -0.030344 -2.928512 -11.762609 20.759966 -21.662775 -20.663586 62.144714 -67.502953 -3.010663 1.562198 -38.815926 -50.520088 65.799850 3.039003 -10.437020 21.908669 -17.088308 37.523674 -128.887924 71.508492 3.052679 1.462913 38.805038 50.520535 65.806732 -19.789589 4.119667 2.726693 22.884560 -1.250596 -2.900168 70.499054 -5.012101 -7.693959 -16.706345 -11.399495 -32.232422 42.594585 0.244242 3.874416 20.967539 6.952625 -10.266802 
0.334508 3.999028 0.334508 89.444618 0.153386 -0.489003 21.028458 1.433472 -3.738581 -19.433592 0.000060 -0.009754 7.843248 0.106959 -4.351520 10.524219 0.508720 -0.030344 -9.308722 -10.850078 -10.996357 -25.757912 -6.536190 75.904274 -67.502953 -3.010663 1.562198 -38.815926 -50.520088 65.799850 -3.507819 -12.810498 -9.832957 -3.384019 38.627132 -107.038597 71.508492 3.052679 1.462913 38.805038 50.520535 65.806732 -12.391829 3.866959 2.714332 30.188391 -0.934151 -3.300385 55.734455 -4.632495 -8.133832 -6.875218 -10.324272 -32.994942 54.264427 -0.484840 4.281952 -0.425316 4.153246 -4.863031 
0.334508 0.973000 0.334508 89.444618 0.153386 -0.489003 21.028458 1.433472 -3.738581 -25.078125 -0.009675 0.000773 24.510000 1.360487 -3.991491 10.524219 0.508720 -0.030344 -13.583527 -7.666842 -25.000000 -26.020632 3.202119 84.362869 -67.502953 -3.010663 1.562198 -38.815926 -50.520088 65.799850 -9.302336 -11.938834 -25.000000 5.318404 31.616352 -91.036301 71.508492 3.052679 1.462913 38.805038 50.520535 65.806732 -6.069165 3.668500 2.675219 34.133987 -0.730041 -3.504060 45.439735 -4.325818 -8.371748 -1.622917 -10.386686 -35.306969 62.079117 -1.029047 4.468258 -12.353523 3.242396 -2.076617 
0.334508 0.973000 0.334508 89.444618 0.153386 -0.489003 21.028458 1.433472 -3.738581 -25.078125 -0.009675 0.000773 24.510000 1.360487 -3.991491 10.524219 0.508720 -0.030344 -13.583527 -7.666842 -25.000000 -26.020632 3.202119 84.362869 -67.502953 -3.010663 1.562198 -38.815926 -50.520088 65.799850 -9.302336 -11.938834 -25.000000 5.390243 30.757116 -89.793152 71.508492 3.052679 1.462913 38.805038 50.520535 65.806732 -6.069165 3.668500 2.675219 23.893188 -1.205882 -2.942367 48.980179 -3.650290 -8.609673 -2.335324 -12.263647 -40.442501 64.602119 -1.205492 4.526607 -12.708659 5.556154 -3.217612 
0.334508 0.973000 0.334508 89.444618 0.153386 -0.489003 21.028458 1.433472 -3.738581 -25.078125 -0.009675 0.000773 24.510000 1.360487 -3.991491 10.524219 0.508720 -0.030344 -13.583527 -7.666842 -25.000000 -26.020632 3.202119 84.362869 -67.502953 -3.010663 1.562198 -38.815926 -50.520088 65.799850 -9.302336 -11.938834 -25.000000 5.324207 31.825871 -89.507072 71.508492 3.052679 1.462913 38.805038 50.520535 65.806732 -6.069165 3.668500 2.675219 10.183002 -1.691107 -2.078028 55.091293 -2.902622 -8.712097 -5.439911 -15.311879 -46.657116 65.167686 -1.245281 4.523258 -7.493562 8.770258 -6.492354 
0.334508 0.973000 0.334508 89.444618 0.153386 -0.489003 21.028458 1.433472 -3.738581 -25.078125 -0.009675 0.000773 24.510000 1.360487 -3.991491 10.524219 0.508720 -0.030344 -13.583527 -7.666842 -25.000000 -26.020632 3.202119 84.362869 -67.502953 -3.010663 1.562198 -38.815926 -50.520088 65.799850 -9.302336 -11.938834 -25.000000 5.175171 32.630676 -89.382851 71.508492 3.052679 1.462913 38.805038 50.520535 65.806732 -6.069165 3.668500 2.675219 10.183002 -1.691107 -2.078028 55.091293 -2.902622 -8.712097 -8.731814 -18.650473 -52.258808 65.050682 -1.236273 4.524487 -0.909160 11.297162 -10.400262 
0.334508 0.973000 0.334508 89.444618 0.153386 -0.489003 21.028458 1.433472 -3.738581 -25.078125 -0.009675 0.000773 24.510000 1.360487 -3.991491 10.524219 0.508720 -0.030344 -13.583527 -7.666842 -25.000000 -26.020632 3.202119 84.362869 -67.502953 -3.010663 1.562198 -38.815926 -50.520088 65.799850 -9.302336 -11.938834 -25.000000 5.036286 33.418846 -89.447281 71.508492 3.052679 1.462913 38.805038 50.520535 65.806732 -6.069165 3.668500 2.675219 10.183002 -1.691107 -2.078028 55.091293 -2.902622 -8.712097 -10.745380 -21.128588 -56.130672 65.061012 -1.218097 4.526372 3.638465 12.657323 -13.304508 
